PathFileType	4	(X/Y/Z)	C:\Users\WrightLab\Desktop\Jo\P2_Trial37.trc
DataRate	CameraRate	NumFrames	NumMarkers	Units	OrigDataRate	OrigDataStartFrame	OrigNumFrames
100.00	100.00	       14	19	mm	100.00	423	       563
Frame#	Time	Headset_Front			Headset_Back			Headset_Left			Headset_Right			Left_Shoulder			Right_Shoulder			Sternum			C7			Left Elbow			Right Elbow			Left Wrist			Right Wrist			Left ASIS			Right ASIS			S2			Left Knee			Right Knee			Left Ankle			Right Ankle			
		X1	Y1	Z1	X2	Y2	Z2	X3	Y3	Z3	X4	Y4	Z4	X5	Y5	Z5	X6	Y6	Z6	X7	Y7	Z7	X8	Y8	Z8	X9	Y9	Z9	X10	Y10	Z10	X11	Y11	Z11	X12	Y12	Z12	X13	Y13	Z13	X14	Y14	Z14	X15	Y15	Z15	X16	Y16	Z16	X17	Y17	Z17	X18	Y18	Z18	X19	Y19	Z19	

423	4.220							193.28810	1633.05676	1566.13855				301.51239	1485.32043	1475.74084	-19.98847	1439.13513	1408.58398	141.48209	1346.74927	1508.84082	159.61642	1450.60657	1331.53320	440.13876	1207.67798	1649.34790	-73.52370	1106.46350	1316.56165	492.13339	1037.09094	1798.62073	-126.46043	857.13336	1328.57202	227.01521	1055.02039	1561.62610	95.20530	1024.45117	1539.38062	222.40425	972.68060	1297.38171	390.15982	495.96118	1355.03125	66.35939	562.56647	1492.84338	-38.87585	765.82983	1392.64490	-18.28556	234.98001	1742.88257	
424	4.230	-27.20783	1577.61511	1518.10583				190.59015	1631.98486	1573.60278				298.00400	1484.12231	1483.47473	-23.59498	1438.16333	1418.02856	138.45233	1346.57129	1517.22205	155.89851	1450.18494	1339.63257	435.92569	1204.88464	1653.97058	-75.62588	1105.85083	1324.24927	485.86090	1038.92517	1808.63501	-127.93963	856.46857	1330.98987	222.63194	1054.30347	1570.02942	90.89121	1025.51611	1547.85315	219.47986	971.42346	1307.33826	387.95224	496.99323	1357.91724	68.72733	564.64813	1501.86548				-24.69357	239.66057	1751.31396	
425	4.240	-30.49471	1577.03076	1525.92114				186.91331	1630.58276	1581.95435				294.80542	1484.34937	1492.36646	-27.60773	1437.18811	1427.14429	134.49675	1346.52405	1526.25012	153.57158	1449.22632	1347.08838	430.54733	1203.96143	1663.06421	-77.21709	1104.81042	1332.38208	478.74911	1039.84326	1818.47290	-129.62187	855.69189	1334.35034	217.12000	1055.10608	1579.30652	86.27978	1026.85327	1556.01453	215.32608	970.80713	1316.75232	386.40665	498.76611	1362.21301	68.15759	567.73956	1508.68542				-29.90020	242.50949	1757.50562	
426	4.250	-33.96171	1576.23608	1532.91357				182.81375	1629.36963	1590.86414				291.24057	1483.22046	1500.96680	-31.66855	1436.90723	1436.08154	131.20882	1346.45422	1534.76807	150.11517	1449.35425	1354.73730	426.17386	1202.82031	1670.96057	-78.15550	1102.99146	1342.13464	471.40308	1040.36938	1827.93188	-130.13953	855.37933	1338.69495	211.25723	1055.07947	1588.66125	80.63471	1029.20972	1564.92627	212.30588	969.04797	1327.36621	385.07434	500.82916	1368.41077	68.47401	569.32849	1521.22412				-34.79298	243.98640	1764.03528	
427	4.260	115.35552	1456.12964	1491.48071				179.26686	1629.28076	1598.17456				287.41968	1483.45679	1508.75110	-35.32804	1436.55090	1443.41028	127.93196	1344.76343	1539.00586				420.83990	1201.75659	1680.44519	-80.64088	1102.91638	1348.93030	463.92630	1040.23560	1836.93518	-130.90170	855.48901	1342.33435	204.50060	1055.74158	1599.09253	75.23908	1031.16687	1573.90479	209.31950	967.84149	1338.38940	381.57550	501.94525	1375.19080	66.80804	570.54541	1532.56482				-36.94268	242.47807	1768.58459	
428	4.270							175.91211	1628.54468	1605.28491				283.73914	1483.52148	1517.27771	-40.01402	1436.45313	1451.89343	122.69074	1346.87695	1550.68787				415.98077	1200.61401	1687.73938	-81.41099	1101.73657	1357.36890	456.67032	1039.85376	1844.37354	-132.22319	855.00922	1346.58862	198.79434	1056.31775	1608.67456	69.48913	1032.96094	1583.22278	206.42577	966.55908	1350.55615	377.79404	502.79041	1382.25110	63.13580	571.16010	1542.98901				-38.86463	239.80388	1772.93433	
429	4.280							171.29578	1629.25903	1614.04919				279.90707	1483.43262	1525.11462	-43.44915	1437.22131	1458.43640	119.34986	1345.58447	1555.59253				410.42944	1199.88245	1696.12744	-83.99393	1101.32605	1364.64124	448.77756	1039.16003	1853.09241	-132.56966	854.31665	1352.47473	192.72394	1056.91333	1619.40466	63.79214	1034.19836	1592.14526	203.38838	965.88806	1360.87854	375.64270	504.27011	1391.69214	56.96767	571.68536	1550.43530	339.42856	157.97543	1352.54321	-40.23591	236.91371	1777.92529	
430	4.290							167.66333	1629.55066	1621.32788				276.42157	1484.25928	1533.87280	-48.95346	1438.00085	1467.60876	114.19925	1348.65771	1567.87598				406.01367	1198.45605	1702.97046	-85.96619	1100.79431	1373.45093	441.37949	1037.53345	1860.17090	-132.91591	854.85486	1358.19153	186.92802	1057.87781	1630.13538	57.55651	1035.37488	1602.63000	199.05240	965.60706	1371.51819	370.77878	504.85492	1402.06958	50.52766	570.92847	1561.57251	340.88339	157.87968	1356.27991	-40.32054	232.41708	1782.61499	
431	4.300							162.94589	1630.82214	1629.58997				272.79758	1484.79370	1541.56006	-53.74773	1439.03540	1476.07739	109.75760	1350.09985	1575.56274				400.19165	1197.87988	1710.72644	-87.54794	1100.42322	1380.53027	433.34122	1035.65637	1866.97156	-133.87213	855.10559	1363.77625	181.40091	1059.32251	1641.26050	51.27079	1035.60486	1613.30859	194.27296	966.11359	1381.69885	367.32971	505.75275	1413.24097	43.38900	570.82245	1569.39294	340.97028	157.75334	1359.37793	-43.67794	228.22820	1784.99438	
432	4.310							158.24774	1631.78430	1637.57495				268.38934	1485.61218	1548.64258	-58.53408	1441.54138	1484.77759	105.73062	1351.11536	1584.20923				394.35175	1197.58459	1717.84961	-90.29664	1101.20190	1388.15234	424.69034	1034.63599	1873.83154	-134.88358	856.05261	1369.27295	176.63052	1059.25586	1650.80493	45.26860	1035.34363	1623.57654	188.37396	966.53192	1390.68530	363.51239	506.45654	1426.01270	36.23694	570.29309	1581.70386	342.17212	158.52963	1361.74841	-44.17408	222.23817	1789.07397	
433	4.320							154.15591	1633.04712	1644.26160				264.75638	1486.68384	1557.67883	-63.71975	1443.65979	1493.85876	100.97976	1352.89014	1593.01733				388.80737	1196.18408	1724.24280	-93.02501	1102.69836	1394.14697	416.24438	1032.58899	1880.08154	-135.37154	856.56244	1374.79102	171.40962	1060.80212	1660.46533	39.38565	1035.58337	1634.09644	182.51901	967.69330	1402.07104	359.08945	506.70105	1439.13159	26.69167	572.42413	1584.61719	344.30396	160.68170	1368.10181	-45.08951	216.45032	1793.53552	
434	4.330							149.34157	1634.50537	1652.27710				260.17853	1487.79578	1566.39624	-68.66141	1445.66479	1502.91296	96.88005	1354.73242	1601.60596				383.33920	1194.54236	1729.59290	-95.16151	1103.35278	1401.85693	407.43356	1030.49719	1885.37219	-136.50833	858.00153	1380.36682	166.22594	1061.57483	1670.20984	34.23522	1035.48596	1644.08704	176.54840	968.47272	1412.18530	354.08014	505.88333	1452.51880	18.75327	573.20911	1594.20618				-47.12253	209.58932	1797.38379	
435	4.340							144.27995	1636.88599	1660.34875				256.27606	1488.41479	1574.28870	-74.14626	1448.94983	1512.66602	92.48473	1353.95398	1605.73157				376.71954	1194.16833	1737.40112	-97.26963	1104.91638	1407.31970	398.18890	1027.88599	1890.89490	-136.76015	859.08661	1386.34790	161.04892	1063.40173	1680.71802	29.87853	1036.76416	1652.76331	170.50638	968.77106	1422.26233	349.27563	507.80902	1467.15161	10.49299	574.81189	1601.01929				-48.94172	203.05206	1801.98767	
436	4.350							140.42293	1637.96216	1666.73584				251.54451	1489.67249	1583.23157	-79.41877	1452.17334	1521.91138	87.35561	1355.73804	1614.30286				370.52823	1193.19434	1744.13013	-99.58696	1106.99658	1414.02063	389.27261	1025.06372	1895.24609	-137.50116	860.33453	1392.05432	156.38708	1064.41614	1689.94641	24.32310	1039.34521	1661.82178	164.04416	969.57037	1431.42065	344.79483	506.81445	1482.07727	3.69471	575.36804	1611.41748				-49.65780	197.52687	1805.55066	
